<svg width="0" height="0" class="hidden" xmlns="http://www.w3.org/2000/svg" xmlns:xlink="http://www.w3.org/1999/xlink">
  <symbol fill="none" viewBox="0 0 17 27" id="down">
    <path d="M10.5818 22.3436C9.80221 25.0442 9.41241 26.3944 8.66026 26.3944C7.9081 26.3944 7.51831 25.0442 6.73872 22.3436L1.6816 4.82522C0.987356 2.4203 0.640236 1.21784 1.2372 0.80973C1.83417 0.401619 2.82861 1.16154 4.8175 2.68139L7.8732 5.01646C8.48982 5.48767 8.79814 5.72327 9.15216 5.71327C9.50618 5.70326 9.8007 5.45062 10.3897 4.94534L12.2405 3.35773C14.3107 1.58183 15.3459 0.693886 15.9724 1.09673C16.5989 1.49957 16.2207 2.80985 15.4642 5.43043L10.5818 22.3436Z" fill="#672600"></path>
  </symbol>
  <symbol fill="none" viewBox="0 0 16 27" id="up">
    <path d="M5.73872 4.6564C6.5183 1.95584 6.9081 0.605551 7.66025 0.605551C8.41241 0.605551 8.80221 1.95583 9.58179 4.6564L14.6389 22.1748C15.3332 24.5797 15.6803 25.7822 15.0833 26.1903C14.4863 26.5984 13.4919 25.8385 11.503 24.3186L8.44732 21.9835C7.83069 21.5123 7.52238 21.2767 7.16835 21.2867C6.81433 21.2967 6.51981 21.5494 5.93078 22.0547L4.08002 23.6423C2.00977 25.4182 0.974647 26.3061 0.348105 25.9033C-0.278437 25.5004 0.0998104 24.1901 0.856306 21.5696L5.73872 4.6564Z" fill="#672600"></path>
  </symbol>
</svg>
